<?xml version="1.0" encoding="UTF-8"?><svg id="Layer_1" xmlns="http://www.w3.org/2000/svg" viewBox="0 0 1004.5651 911.0475"><defs><style>.cls-1{fill:#9694fd;}</style></defs><path class="cls-1" d="m138.3945,186.513c-5.2502,10.5295-8.2738,21.8213-11.5716,33.0467-3.5647,12.1339-5.921,24.5089-7.8736,36.9501-1.3019,8.2953-1.6754,16.7348-2.5125,25.105-.9171,9.1711-1.0272,18.3748-.7184,27.5612.5656,16.8259,2.1319,33.551,4.7754,50.2119,1.9609,12.3586,4.4084,24.6005,7.565,36.6636,4.3537,16.6375,9.6444,33.007,15.9379,49.0438,6.577,16.7593,14.2192,33.0205,22.6555,48.8999,7.4253,13.9766,15.647,27.502,24.4706,40.6453,8.8872,13.2382,18.1939,26.1793,28.4022,38.4393,13.232,15.8914,27.0475,31.2282,41.9471,45.6179,15.7126,15.1748,32.153,29.467,49.5353,42.6557,21.7693,16.5172,44.6655,31.3229,68.7368,44.2987,18.4266,9.9329,37.3304,18.8303,56.8209,26.4591,20.0728,7.8567,40.5646,14.4159,61.5642,19.3247,14.8901,3.4806,29.8946,6.2532,45.0601,8.3845,16.9938,2.3881,34.0484,2.9954,51.1364,3.5066,1.8976.0568,2.7434.6044,3.5093,2.5622,2.2627,5.7838,1.5712,10.1836-2.7974,15.1943-15.3476,17.6028-30.0631,35.7559-45.0742,53.6534-14.3558,17.1163-28.7891,34.1674-43.17,51.2627-3.3688,4.0047-6.7232,8.0247-9.9672,12.1302-1.6346,2.0686-3.4937,2.8658-6.2011,2.897-10.4979.1208-20.9319-.8653-31.3603-1.6946-19.7251-1.5686-39.244-4.6357-58.5832-8.8769-22.7393-4.9868-44.983-11.6437-66.7312-19.8924-30.3869-11.5254-59.4254-25.8306-87.1964-42.7448-23.4949-14.3098-45.8101-30.2622-66.8915-47.8948-21.781-18.2176-42.1294-37.9264-60.7603-59.417-10.6332-12.2654-20.9199-24.7935-30.4478-37.9118-13.9707-19.2352-26.5341-39.3673-37.6707-60.4008-12.4027-23.4249-22.8137-47.6701-30.9642-72.8847-7.8263-24.2117-13.3245-48.9211-16.8879-74.1436-3.1993-22.6458-3.7635-45.3708-2.5221-68.0559,1.58-28.8732,7.1991-57.0888,16.7722-84.5141,6.7223-19.2581,15.3908-37.5154,25.8914-54.9274,8.3106-13.7806,18.0946-26.5185,28.3503-38.9044,8.457-10.2137,16.7912-20.5291,25.194-30.7877,10.4218-12.7234,20.8968-25.4035,31.2774-38.1605,9.8969-12.1625,19.9443-24.2133,29.5024-36.6387,29.7609-38.6888,65.6581-69.8731,109.9944-90.8713,28.5721-13.5321,58.5107-22.6237,89.7328-27.5483C376.1412,1.7889,395.0681.3342,414.1109.0023c3.6032-.0628,5.1309,1.1758,5.6027,4.4698.2709,1.8915.6898,3.7619,1.0419,5.6418-.8881.0422-1.7785.1487-2.664.1172-25.7628-.9172-51.3247.7824-76.6171,5.918-92.0755,18.6962-157.5033,71.2086-197.4854,155.8737-2.1971,4.6525-4.5953,9.3289-5.5946,14.4902Z"/><path class="cls-1" d="m138.3945,186.513c.9993-5.1613,3.3975-9.8377,5.5946-14.4902C183.9712,87.3577,249.3989,34.8453,341.4744,16.1491c25.2924-5.1357,50.8542-6.8353,76.6171-5.918.8855.0315,1.7759-.075,2.664-.1172.3965,2.8621-2.1117,4.1842-3.4722,5.9222-32.1809,41.1128-64.4896,82.1255-96.7261,123.1949-1.4022,1.7864-2.7894,2.4012-5.127,2.2841-63.6217-3.1861-122.4527,12.5714-177.0358,44.9979Z"/><path class="cls-1" d="m866.1706,724.5346c5.2502-10.5295,8.2738-21.8213,11.5716-33.0467,3.5647-12.1339,5.921-24.5089,7.8736-36.9501,1.3019-8.2953,1.6754-16.7348,2.5125-25.105.9171-9.1711,1.0272-18.3748.7184-27.5612-.5656-16.8259-2.1319-33.551-4.7754-50.2119-1.9609-12.3586-4.4084-24.6005-7.565-36.6636-4.3537-16.6375-9.6444-33.007-15.9379-49.0438-6.577-16.7593-14.2192-33.0205-22.6555-48.8999-7.4253-13.9766-15.647-27.502-24.4706-40.6453-8.8872-13.2382-18.1939-26.1793-28.4022-38.4393-13.232-15.8914-27.0475-31.2282-41.9471-45.6179-15.7126-15.1748-32.153-29.467-49.5353-42.6557-21.7693-16.5172-44.6655-31.3229-68.7368-44.2987-18.4266-9.9329-37.3304-18.8303-56.8209-26.4591-20.0728-7.8567-40.5646-14.4159-61.5642-19.3247-14.8901-3.4806-29.8946-6.2532-45.0601-8.3845-16.9938-2.3881-34.0484-2.9954-51.1364-3.5066-1.8976-.0568-2.7434-.6044-3.5093-2.5622-2.2627-5.7838-1.5712-10.1836,2.7974-15.1943,15.3476-17.6028,30.0631-35.7559,45.0742-53.6534,14.3558-17.1163,28.7891-34.1674,43.17-51.2627,3.3688-4.0047,6.7232-8.0247,9.9672-12.1302,1.6346-2.0686,3.4937-2.8658,6.2011-2.897,10.4979-.1208,20.9319.8653,31.3603,1.6946,19.7251,1.5686,39.244,4.6357,58.5832,8.8769,22.7393,4.9868,44.983,11.6437,66.7312,19.8924,30.3869,11.5254,59.4254,25.8306,87.1964,42.7448,23.4949,14.3098,45.8101,30.2622,66.8915,47.8948,21.781,18.2176,42.1294,37.9264,60.7603,59.417,10.6332,12.2654,20.9199,24.7935,30.4478,37.9118,13.9707,19.2352,26.5341,39.3673,37.6707,60.4008,12.4027,23.4249,22.8137,47.6701,30.9642,72.8847,7.8263,24.2117,13.3245,48.9211,16.8879,74.1436,3.1993,22.6458,3.7635,45.3708,2.5221,68.0559-1.58,28.8732-7.1991,57.0888-16.7722,84.5141-6.7223,19.2581-15.3908,37.5154-25.8914,54.9274-8.3106,13.7806-18.0946,26.5185-28.3503,38.9044-8.457,10.2137-16.7912,20.5291-25.194,30.7877-10.4218,12.7234-20.8968,25.4035-31.2774,38.1605-9.8969,12.1625-19.9443,24.2133-29.5024,36.6387-29.7609,38.6888-65.6581,69.8731-109.9944,90.8713-28.5721,13.5321-58.5107,22.6237-89.7328,27.5483-18.8164,2.9678-37.7433,4.4225-56.7861,4.7544-3.6032.0628-5.1309-1.1758-5.6027-4.4698-.2709-1.8915-.6898-3.7619-1.0419-5.6418.8881-.0422,1.7785-.1487,2.664-.1172,25.7628.9172,51.3247-.7824,76.6171-5.918,92.0755-18.6962,157.5033-71.2086,197.4854-155.8737,2.1971-4.6525,4.5953-9.3289,5.5946-14.4902Z"/><path class="cls-1" d="m866.1706,724.5346c-.9993,5.1613-3.3975,9.8377-5.5946,14.4902-39.9821,84.6651-105.4098,137.1774-197.4854,155.8737-25.2924,5.1357-50.8542,6.8353-76.6171,5.918-.8855-.0315-1.7759.075-2.664.1172-.3965-2.8621,2.1117-4.1842,3.4722-5.9222,32.1809-41.1128,64.4896-82.1255,96.7261-123.1949,1.4022-1.7864,2.7894-2.4012,5.127-2.2841,63.6217,3.1861,122.4527-12.5714,177.0358-44.9979Z"/></svg>